<?xml version="1.0" encoding="us-ascii" standalone="no"?><svg xmlns="http://www.w3.org/2000/svg" xmlns:xlink="http://www.w3.org/1999/xlink" contentStyleType="text/css" height="663px" preserveAspectRatio="none" style="width:619px;height:663px;background:#FFFFFF;" version="1.1" viewBox="0 0 619 663" width="619px" zoomAndPan="magnify"><defs/><g><!--class ConcreteObserverA--><g id="elem_ConcreteObserverA"><rect codeLine="3" fill="#F1F1F1" height="113.1875" id="ConcreteObserverA" rx="2.5" ry="2.5" style="stroke:#181818;stroke-width:0.5;" width="285" x="7" y="543"/><ellipse cx="73.75" cy="559" fill="#ADD1B2" rx="11" ry="11" style="stroke:#181818;stroke-width:1.0;"/><path d="M76.0938,554.6719 C75.1563,554.2344 74.5625,554.0938 73.6875,554.0938 C71.0625,554.0938 69.0625,556.1719 69.0625,558.8906 L69.0625,560.0156 C69.0625,562.5938 71.1719,564.4844 74.0625,564.4844 C75.2813,564.4844 76.4375,564.1875 77.1875,563.6406 C77.7656,563.2344 78.0938,562.7813 78.0938,562.3906 C78.0938,561.9375 77.7031,561.5469 77.2344,561.5469 C77.0156,561.5469 76.8125,561.625 76.625,561.8125 C76.1719,562.2969 76.1719,562.2969 75.9844,562.3906 C75.5625,562.6563 74.875,562.7813 74.1094,562.7813 C72.0625,562.7813 70.7656,561.6875 70.7656,559.9844 L70.7656,558.8906 C70.7656,557.1094 72.0156,555.7969 73.75,555.7969 C74.3281,555.7969 74.9375,555.9531 75.4063,556.2031 C75.8906,556.4844 76.0625,556.7031 76.1563,557.1094 C76.2188,557.5156 76.25,557.6406 76.3906,557.7656 C76.5313,557.9063 76.7656,558.0156 76.9844,558.0156 C77.25,558.0156 77.5156,557.875 77.6875,557.6563 C77.7969,557.5 77.8281,557.3125 77.8281,556.8906 L77.8281,555.4688 C77.8281,555.0313 77.8125,554.9063 77.7188,554.75 C77.5625,554.4844 77.2813,554.3438 76.9844,554.3438 C76.6875,554.3438 76.4844,554.4375 76.2656,554.75 L76.0938,554.6719 Z " fill="#000000"/><text fill="#000000" font-family="sans-serif" font-size="14" lengthAdjust="spacing" textLength="143" x="94.25" y="563.8467">ConcreteObserverA</text><line style="stroke:#181818;stroke-width:0.5;" x1="8" x2="291" y1="575" y2="575"/><rect fill="none" height="6" style="stroke:#C82930;stroke-width:1.0;" width="6" x="15" y="585.6484"/><text fill="#000000" font-family="sans-serif" font-size="14" lengthAdjust="spacing" textLength="92" x="27" y="591.9951">m_state : int</text><line style="stroke:#181818;stroke-width:0.5;" x1="8" x2="291" y1="599.2969" y2="599.2969"/><ellipse cx="18" cy="612.9453" fill="#84BE84" rx="3" ry="3" style="stroke:#038048;stroke-width:1.0;"/><text fill="#000000" font-family="sans-serif" font-size="14" lengthAdjust="spacing" textLength="259" x="27" y="616.292">ConcreteObserverA(const int state)</text><ellipse cx="18" cy="629.2422" fill="#84BE84" rx="3" ry="3" style="stroke:#038048;stroke-width:1.0;"/><text fill="#000000" font-family="sans-serif" font-size="14" lengthAdjust="spacing" textLength="108" x="27" y="632.5889">getState() : int</text><ellipse cx="18" cy="645.5391" fill="#84BE84" rx="3" ry="3" style="stroke:#038048;stroke-width:1.0;"/><text fill="#000000" font-family="sans-serif" font-size="14" lengthAdjust="spacing" textLength="227" x="27" y="648.8857">update(ISubject* subject) : void</text></g><!--class ConcreteObserverB--><g id="elem_ConcreteObserverB"><rect codeLine="11" fill="#F1F1F1" height="113.1875" id="ConcreteObserverB" rx="2.5" ry="2.5" style="stroke:#181818;stroke-width:0.5;" width="285" x="327" y="543"/><ellipse cx="393.75" cy="559" fill="#ADD1B2" rx="11" ry="11" style="stroke:#181818;stroke-width:1.0;"/><path d="M396.0938,554.6719 C395.1563,554.2344 394.5625,554.0938 393.6875,554.0938 C391.0625,554.0938 389.0625,556.1719 389.0625,558.8906 L389.0625,560.0156 C389.0625,562.5938 391.1719,564.4844 394.0625,564.4844 C395.2813,564.4844 396.4375,564.1875 397.1875,563.6406 C397.7656,563.2344 398.0938,562.7813 398.0938,562.3906 C398.0938,561.9375 397.7031,561.5469 397.2344,561.5469 C397.0156,561.5469 396.8125,561.625 396.625,561.8125 C396.1719,562.2969 396.1719,562.2969 395.9844,562.3906 C395.5625,562.6563 394.875,562.7813 394.1094,562.7813 C392.0625,562.7813 390.7656,561.6875 390.7656,559.9844 L390.7656,558.8906 C390.7656,557.1094 392.0156,555.7969 393.75,555.7969 C394.3281,555.7969 394.9375,555.9531 395.4063,556.2031 C395.8906,556.4844 396.0625,556.7031 396.1563,557.1094 C396.2188,557.5156 396.25,557.6406 396.3906,557.7656 C396.5313,557.9063 396.7656,558.0156 396.9844,558.0156 C397.25,558.0156 397.5156,557.875 397.6875,557.6563 C397.7969,557.5 397.8281,557.3125 397.8281,556.8906 L397.8281,555.4688 C397.8281,555.0313 397.8125,554.9063 397.7188,554.75 C397.5625,554.4844 397.2813,554.3438 396.9844,554.3438 C396.6875,554.3438 396.4844,554.4375 396.2656,554.75 L396.0938,554.6719 Z " fill="#000000"/><text fill="#000000" font-family="sans-serif" font-size="14" lengthAdjust="spacing" textLength="143" x="414.25" y="563.8467">ConcreteObserverB</text><line style="stroke:#181818;stroke-width:0.5;" x1="328" x2="611" y1="575" y2="575"/><rect fill="none" height="6" style="stroke:#C82930;stroke-width:1.0;" width="6" x="335" y="585.6484"/><text fill="#000000" font-family="sans-serif" font-size="14" lengthAdjust="spacing" textLength="92" x="347" y="591.9951">m_state : int</text><line style="stroke:#181818;stroke-width:0.5;" x1="328" x2="611" y1="599.2969" y2="599.2969"/><ellipse cx="338" cy="612.9453" fill="#84BE84" rx="3" ry="3" style="stroke:#038048;stroke-width:1.0;"/><text fill="#000000" font-family="sans-serif" font-size="14" lengthAdjust="spacing" textLength="259" x="347" y="616.292">ConcreteObserverB(const int state)</text><ellipse cx="338" cy="629.2422" fill="#84BE84" rx="3" ry="3" style="stroke:#038048;stroke-width:1.0;"/><text fill="#000000" font-family="sans-serif" font-size="14" lengthAdjust="spacing" textLength="108" x="347" y="632.5889">getState() : int</text><ellipse cx="338" cy="645.5391" fill="#84BE84" rx="3" ry="3" style="stroke:#038048;stroke-width:1.0;"/><text fill="#000000" font-family="sans-serif" font-size="14" lengthAdjust="spacing" textLength="227" x="347" y="648.8857">update(ISubject* subject) : void</text></g><!--class ConcreteSubject--><g id="elem_ConcreteSubject"><rect codeLine="19" fill="#F1F1F1" height="162.0781" id="ConcreteSubject" rx="2.5" ry="2.5" style="stroke:#181818;stroke-width:0.5;" width="319" x="150" y="180"/><ellipse cx="244.25" cy="196" fill="#ADD1B2" rx="11" ry="11" style="stroke:#181818;stroke-width:1.0;"/><path d="M246.5938,191.6719 C245.6563,191.2344 245.0625,191.0938 244.1875,191.0938 C241.5625,191.0938 239.5625,193.1719 239.5625,195.8906 L239.5625,197.0156 C239.5625,199.5938 241.6719,201.4844 244.5625,201.4844 C245.7813,201.4844 246.9375,201.1875 247.6875,200.6406 C248.2656,200.2344 248.5938,199.7813 248.5938,199.3906 C248.5938,198.9375 248.2031,198.5469 247.7344,198.5469 C247.5156,198.5469 247.3125,198.625 247.125,198.8125 C246.6719,199.2969 246.6719,199.2969 246.4844,199.3906 C246.0625,199.6563 245.375,199.7813 244.6094,199.7813 C242.5625,199.7813 241.2656,198.6875 241.2656,196.9844 L241.2656,195.8906 C241.2656,194.1094 242.5156,192.7969 244.25,192.7969 C244.8281,192.7969 245.4375,192.9531 245.9063,193.2031 C246.3906,193.4844 246.5625,193.7031 246.6563,194.1094 C246.7188,194.5156 246.75,194.6406 246.8906,194.7656 C247.0313,194.9063 247.2656,195.0156 247.4844,195.0156 C247.75,195.0156 248.0156,194.875 248.1875,194.6563 C248.2969,194.5 248.3281,194.3125 248.3281,193.8906 L248.3281,192.4688 C248.3281,192.0313 248.3125,191.9063 248.2188,191.75 C248.0625,191.4844 247.7813,191.3438 247.4844,191.3438 C247.1875,191.3438 246.9844,191.4375 246.7656,191.75 L246.5938,191.6719 Z " fill="#000000"/><text fill="#000000" font-family="sans-serif" font-size="14" lengthAdjust="spacing" textLength="122" x="264.75" y="200.8467">ConcreteSubject</text><line style="stroke:#181818;stroke-width:0.5;" x1="151" x2="468" y1="212" y2="212"/><rect fill="none" height="6" style="stroke:#C82930;stroke-width:1.0;" width="6" x="158" y="222.6484"/><text fill="#000000" font-family="sans-serif" font-size="14" lengthAdjust="spacing" textLength="92" x="170" y="228.9951">m_state : int</text><rect fill="none" height="6" style="stroke:#C82930;stroke-width:1.0;" width="6" x="158" y="238.9453"/><text fill="#000000" font-family="sans-serif" font-size="14" lengthAdjust="spacing" textLength="293" x="170" y="245.292">m_observers : std::vector&lt;IObserever*&gt;</text><line style="stroke:#181818;stroke-width:0.5;" x1="151" x2="468" y1="252.5938" y2="252.5938"/><ellipse cx="161" cy="266.2422" fill="#84BE84" rx="3" ry="3" style="stroke:#038048;stroke-width:1.0;"/><text fill="#000000" font-family="sans-serif" font-size="14" lengthAdjust="spacing" textLength="132" x="170" y="269.5889">ConcreteSubject()</text><ellipse cx="161" cy="282.5391" fill="#84BE84" rx="3" ry="3" style="stroke:#038048;stroke-width:1.0;"/><text fill="#000000" font-family="sans-serif" font-size="14" lengthAdjust="spacing" textLength="108" x="170" y="285.8857">getState() : int</text><ellipse cx="161" cy="298.8359" fill="#84BE84" rx="3" ry="3" style="stroke:#038048;stroke-width:1.0;"/><text fill="#000000" font-family="sans-serif" font-size="14" lengthAdjust="spacing" textLength="233" x="170" y="302.1826">add(IObserever* observer) : void</text><ellipse cx="161" cy="315.1328" fill="#84BE84" rx="3" ry="3" style="stroke:#038048;stroke-width:1.0;"/><text fill="#000000" font-family="sans-serif" font-size="14" lengthAdjust="spacing" textLength="96" x="170" y="318.4795">notify() : void</text><ellipse cx="161" cy="331.4297" fill="#84BE84" rx="3" ry="3" style="stroke:#038048;stroke-width:1.0;"/><text fill="#000000" font-family="sans-serif" font-size="14" lengthAdjust="spacing" textLength="222" x="170" y="334.7764">setState(const int state) : void</text></g><!--class IObserever--><g id="elem_IObserever"><rect codeLine="30" fill="#F1F1F1" height="80.5938" id="IObserever" rx="2.5" ry="2.5" style="stroke:#181818;stroke-width:0.5;" width="248" x="185.5" y="402"/><ellipse cx="266.25" cy="418" fill="#A9DCDF" rx="11" ry="11" style="stroke:#181818;stroke-width:1.0;"/><path d="M268.3281,419.8125 L268.7188,420.7969 L268.3281,420.7969 C267.875,420.7969 267.7656,420.8125 267.6094,420.9219 C267.3594,421.0781 267.2031,421.3594 267.2031,421.6563 C267.2031,421.9219 267.3438,422.1719 267.5625,422.3281 C267.7031,422.4531 267.9063,422.5 268.3281,422.5 L270.6875,422.5 C271.0469,422.5 271.2656,422.4688 271.4063,422.375 C271.6563,422.2344 271.8125,421.9375 271.8125,421.6563 C271.8125,421.375 271.6719,421.125 271.4531,420.9688 C271.2813,420.8281 271.125,420.7969 270.6563,420.7969 L267.2656,412.5938 L263.5938,412.5938 C263.1406,412.5938 263.0156,412.6094 262.8594,412.7031 C262.6094,412.875 262.4531,413.1563 262.4531,413.4375 C262.4531,413.7188 262.5938,413.9688 262.8125,414.1406 C262.9844,414.25 263.1563,414.2813 263.5938,414.2813 L264.6719,414.2813 L262.0313,420.7969 C261.6094,420.7969 261.4531,420.8125 261.2969,420.9219 C261.0469,421.0781 260.8906,421.3594 260.8906,421.6563 C260.8906,422.2188 261.2656,422.5 262.0156,422.5 L264.2813,422.5 C264.6406,422.5 264.8594,422.4688 264.9844,422.375 C265.25,422.2344 265.3906,421.9375 265.3906,421.6563 C265.3906,421.375 265.2656,421.125 265.0469,420.9531 C264.875,420.8281 264.7344,420.7969 264.2813,420.7969 L263.8906,420.7969 L264.2813,419.8125 L268.3281,419.8125 Z M267.625,418.1094 L264.9531,418.1094 L266.2969,414.8438 L267.625,418.1094 Z " fill="#000000"/><text fill="#000000" font-family="sans-serif" font-size="14" font-style="italic" lengthAdjust="spacing" textLength="78" x="286.75" y="422.8467">IObserever</text><line style="stroke:#181818;stroke-width:0.5;" x1="186.5" x2="432.5" y1="434" y2="434"/><line style="stroke:#181818;stroke-width:0.5;" x1="186.5" x2="432.5" y1="442" y2="442"/><ellipse cx="196.5" cy="455.6484" fill="#84BE84" rx="3" ry="3" style="stroke:#038048;stroke-width:1.0;"/><text fill="#000000" font-family="sans-serif" font-size="14" font-style="italic" lengthAdjust="spacing" textLength="101" x="205.5" y="458.9951">getState() : int</text><ellipse cx="196.5" cy="471.9453" fill="#84BE84" rx="3" ry="3" style="stroke:#038048;stroke-width:1.0;"/><text fill="#000000" font-family="sans-serif" font-size="14" font-style="italic" lengthAdjust="spacing" textLength="222" x="205.5" y="475.292">update(ISubject* subject) : void</text></g><!--class ISubject--><g id="elem_ISubject"><rect codeLine="36" fill="#F1F1F1" height="113.1875" id="ISubject" rx="2.5" ry="2.5" style="stroke:#181818;stroke-width:0.5;" width="258" x="180.5" y="7"/><ellipse cx="276.75" cy="23" fill="#A9DCDF" rx="11" ry="11" style="stroke:#181818;stroke-width:1.0;"/><path d="M278.8281,24.8125 L279.2188,25.7969 L278.8281,25.7969 C278.375,25.7969 278.2656,25.8125 278.1094,25.9219 C277.8594,26.0781 277.7031,26.3594 277.7031,26.6563 C277.7031,26.9219 277.8438,27.1719 278.0625,27.3281 C278.2031,27.4531 278.4063,27.5 278.8281,27.5 L281.1875,27.5 C281.5469,27.5 281.7656,27.4688 281.9063,27.375 C282.1563,27.2344 282.3125,26.9375 282.3125,26.6563 C282.3125,26.375 282.1719,26.125 281.9531,25.9688 C281.7813,25.8281 281.625,25.7969 281.1563,25.7969 L277.7656,17.5938 L274.0938,17.5938 C273.6406,17.5938 273.5156,17.6094 273.3594,17.7031 C273.1094,17.875 272.9531,18.1563 272.9531,18.4375 C272.9531,18.7188 273.0938,18.9688 273.3125,19.1406 C273.4844,19.25 273.6563,19.2813 274.0938,19.2813 L275.1719,19.2813 L272.5313,25.7969 C272.1094,25.7969 271.9531,25.8125 271.7969,25.9219 C271.5469,26.0781 271.3906,26.3594 271.3906,26.6563 C271.3906,27.2188 271.7656,27.5 272.5156,27.5 L274.7813,27.5 C275.1406,27.5 275.3594,27.4688 275.4844,27.375 C275.75,27.2344 275.8906,26.9375 275.8906,26.6563 C275.8906,26.375 275.7656,26.125 275.5469,25.9531 C275.375,25.8281 275.2344,25.7969 274.7813,25.7969 L274.3906,25.7969 L274.7813,24.8125 L278.8281,24.8125 Z M278.125,23.1094 L275.4531,23.1094 L276.7969,19.8438 L278.125,23.1094 Z " fill="#000000"/><text fill="#000000" font-family="sans-serif" font-size="14" font-style="italic" lengthAdjust="spacing" textLength="57" x="297.25" y="27.8467">ISubject</text><line style="stroke:#181818;stroke-width:0.5;" x1="181.5" x2="437.5" y1="39" y2="39"/><line style="stroke:#181818;stroke-width:0.5;" x1="181.5" x2="437.5" y1="47" y2="47"/><ellipse cx="191.5" cy="60.6484" fill="#84BE84" rx="3" ry="3" style="stroke:#038048;stroke-width:1.0;"/><text fill="#000000" font-family="sans-serif" font-size="14" font-style="italic" lengthAdjust="spacing" textLength="101" x="200.5" y="63.9951">getState() : int</text><ellipse cx="191.5" cy="76.9453" fill="#84BE84" rx="3" ry="3" style="stroke:#038048;stroke-width:1.0;"/><text fill="#000000" font-family="sans-serif" font-size="14" font-style="italic" lengthAdjust="spacing" textLength="232" x="200.5" y="80.292">add(IObserever* observer) : void</text><ellipse cx="191.5" cy="93.2422" fill="#84BE84" rx="3" ry="3" style="stroke:#038048;stroke-width:1.0;"/><text fill="#000000" font-family="sans-serif" font-size="14" font-style="italic" lengthAdjust="spacing" textLength="93" x="200.5" y="96.5889">notify() : void</text><ellipse cx="191.5" cy="109.5391" fill="#84BE84" rx="3" ry="3" style="stroke:#038048;stroke-width:1.0;"/><text fill="#000000" font-family="sans-serif" font-size="14" font-style="italic" lengthAdjust="spacing" textLength="210" x="200.5" y="112.8857">setState(const int state) : void</text></g><!--reverse link IObserever to ConcreteObserverA--><g id="link_IObserever_ConcreteObserverA"><path codeLine="49" d="M253.989,497.276 C238.736,512.053 222.167,528.103 206.814,542.977 " fill="none" id="IObserever-backto-ConcreteObserverA" style="stroke:#181818;stroke-width:1.0;"/><polygon fill="none" points="249.476,491.902,268.711,483.014,259.217,501.958,249.476,491.902" style="stroke:#181818;stroke-width:1.0;"/></g><!--reverse link IObserever to ConcreteObserverB--><g id="link_IObserever_ConcreteObserverB"><path codeLine="52" d="M365.011,497.276 C380.264,512.053 396.833,528.103 412.186,542.977 " fill="none" id="IObserever-backto-ConcreteObserverB" style="stroke:#181818;stroke-width:1.0;"/><polygon fill="none" points="359.783,501.958,350.289,483.014,369.524,491.902,359.783,501.958" style="stroke:#181818;stroke-width:1.0;"/></g><!--reverse link ISubject to ConcreteSubject--><g id="link_ISubject_ConcreteSubject"><path codeLine="55" d="M309.5,140.55 C309.5,153.403 309.5,166.783 309.5,179.74 " fill="none" id="ISubject-backto-ConcreteSubject" style="stroke:#181818;stroke-width:1.0;"/><polygon fill="none" points="302.5,140.261,309.5,120.261,316.5,140.261,302.5,140.261" style="stroke:#181818;stroke-width:1.0;"/></g><!--reverse link ConcreteSubject to IObserever--><g id="link_ConcreteSubject_IObserever"><path codeLine="63" d="M309.5,355.223 C309.5,371.675 309.5,387.971 309.5,401.895 " fill="none" id="ConcreteSubject-backto-IObserever" style="stroke:#181818;stroke-width:1.0;"/><polygon fill="none" points="309.5,342.038,305.5,348.038,309.5,354.038,313.5,348.038,309.5,342.038" style="stroke:#181818;stroke-width:1.0;"/></g><!--SRC=[lLFBReCm43pZhzWR98XmHr6bq1ENvf0Fg0ni2LLgH_O6gKhpxpKF4mTIYLCvsJEpkxCZ7Fkmpp-n80r-p5Xnubh3gnI5Gi9zhb4rg7PmPLuuGuD22arG2m9Dd71bH1NIeJq7AqXQXddHrtl7sdjuEPUj83jSki5hqFsXhMXaNR8R-yj8-jH8-dz61kc3ZG4BbaqrTpdurWRJL2P9OygbscRTGcYOzOlfnSioS22mPQCzBnIIwe_lm46qDJ2DnDs9vveKDslqozs7T7jTBNs3-JekkoY_wImtmSMJ5aJXgEUfEEIYWCmN-v298wgQk2WG59uurQRaM9_xfx9nOjl-H15iPW-4BL6bdSh6ygWPqD7HhgeKLfsHPuwcVwbiUzqDiB7F6sh2qiHeN_ul]--></g></svg>